<svg version="1.2" xmlns="http://www.w3.org/2000/svg" viewBox="0 0 34 34" width="34" height="34"><style>.a{fill:#fff}</style><path class="a" d="m25.8 5.1l3 3-12.6 13.1h-3.5v-3.5l13.1-12.6m0-5.1c-0.5 0-1.1 0.2-1.5 0.6l-15.8 15.3v9.5h9.5l15.3-15.8c0.8-0.8 0.8-2.2 0-3l-6-6c-0.4-0.4-0.9-0.6-1.5-0.6zm3.9 23.3c0-1.2 0.9-2.1 2.1-2.1 1.2 0 2.1 0.9 2.1 2.1v8.5c0 1.1-0.9 2.1-2.1 2.1h-29.7c-1.1 0-2.1-1-2.1-2.1v-29.7c0-1.1 1-2.1 2.1-2.1h8.5c1.2 0 2.1 1 2.1 2.1 0 1.2-0.9 2.1-2.1 2.1h-5.3c-0.6 0-1.1 0.5-1.1 1.1v23.3c0 0.6 0.5 1.1 1.1 1.1h23.3c0.6 0 1.1-0.5 1.1-1.1z"/></svg>